<svg xmlns="http://www.w3.org/2000/svg" viewBox="0 0 500 500" width="100%" height="100%">
  <defs>
    <linearGradient id="gold-grad" x1="0%" y1="0%" x2="100%" y2="100%">
      <stop offset="0%" stop-color="#C5A059" />
      <stop offset="30%" stop-color="#F3E7C4" />
      <stop offset="70%" stop-color="#B4924E" />
      <stop offset="100%" stop-color="#8B692E" />
    </linearGradient>
  </defs>
  
  <!-- Outer Gold Logo Mark -->
  <path d="M 250,175 
           C 220,135 170,130 140,165 
           C 110,200 110,260 110,295 
           C 110,335 125,365 160,365 
           C 195,365 210,335 210,295 
           L 210,240 
           L 250,200 
           L 290,240 
           L 290,295 
           C 290,335 305,365 340,365 
           C 375,365 390,335 390,295 
           C 390,260 390,200 360,165 
           C 330,130 280,135 250,175 Z" 
        fill="url(#gold-grad)" />
</svg>
